<?xml version="1.0" encoding="UTF-8" standalone="no"?>
<!-- Created with Inkscape (http://www.inkscape.org/) -->

<svg
   xmlns:dc="http://purl.org/dc/elements/1.1/"
   xmlns:cc="http://creativecommons.org/ns#"
   xmlns:rdf="http://www.w3.org/1999/02/22-rdf-syntax-ns#"
   xmlns:svg="http://www.w3.org/2000/svg"
   xmlns="http://www.w3.org/2000/svg"
   xmlns:sodipodi="http://sodipodi.sourceforge.net/DTD/sodipodi-0.dtd"
   xmlns:inkscape="http://www.inkscape.org/namespaces/inkscape"
   width="120"
   height="120"
   id="svg2"
   version="1.1"
   inkscape:version="0.48.2 r9819"
   sodipodi:docname="publicDemoAppIcon.svg"
   inkscape:export-filename="/Users/mlathrop/Desktop/publicDemoAppIcon.png"
   inkscape:export-xdpi="90"
   inkscape:export-ydpi="90">
  <defs
     id="defs4">
    <inkscape:perspective
       sodipodi:type="inkscape:persp3d"
       inkscape:vp_x="0 : 60 : 1"
       inkscape:vp_y="0 : 1000 : 0"
       inkscape:vp_z="120 : 60 : 1"
       inkscape:persp3d-origin="60 : 40 : 1"
       id="perspective4946" />
    <clipPath
       id="clipPath5738"
       clipPathUnits="userSpaceOnUse">
      <path
         id="path5740"
         d="M 0,792 612,792 612,0 0,0 0,792 z" />
    </clipPath>
    <clipPath
       id="clipPath5428"
       clipPathUnits="userSpaceOnUse">
      <path
         id="path5430"
         d="M 0,792 612,792 612,0 0,0 0,792 z" />
    </clipPath>
    <clipPath
       id="clipPath5412"
       clipPathUnits="userSpaceOnUse">
      <path
         id="path5414"
         d="M 0,792 612,792 612,0 0,0 0,792 z" />
    </clipPath>
    <clipPath
       id="clipPath5144"
       clipPathUnits="userSpaceOnUse">
      <path
         id="path5146"
         d="M 0,792 612,792 612,0 0,0 0,792 z" />
    </clipPath>
    <clipPath
       id="clipPath5086"
       clipPathUnits="userSpaceOnUse">
      <path
         id="path5088"
         d="M 0,792 612,792 612,0 0,0 0,792 z" />
    </clipPath>
  </defs>
  <sodipodi:namedview
     id="base"
     pagecolor="#ffffff"
     bordercolor="#666666"
     borderopacity="1.0"
     inkscape:pageopacity="0.0"
     inkscape:pageshadow="2"
     inkscape:zoom="2.8"
     inkscape:cx="57.21402"
     inkscape:cy="68.798701"
     inkscape:document-units="px"
     inkscape:current-layer="layer1"
     showgrid="false"
     inkscape:window-width="1197"
     inkscape:window-height="1063"
     inkscape:window-x="1733"
     inkscape:window-y="55"
     inkscape:window-maximized="0" />
  <metadata
     id="metadata7">
    <rdf:RDF>
      <cc:Work
         rdf:about="">
        <dc:format>image/svg+xml</dc:format>
        <dc:type
           rdf:resource="http://purl.org/dc/dcmitype/StillImage" />
        <dc:title></dc:title>
      </cc:Work>
    </rdf:RDF>
  </metadata>
  <g
     inkscape:label="Layer 1"
     inkscape:groupmode="layer"
     id="layer1"
     transform="translate(0,-932.36218)">
    <rect
       style="fill:#e98300;fill-opacity:1"
       id="rect3001"
       width="120"
       height="120"
       x="0"
       y="-1052.3622"
       transform="scale(1,-1)" />
    <g
       transform="matrix(1.25,0,0,-1.25,-290.32358,1483.2175)"
       inkscape:label="ETMC-Icon-Library-20140515"
       id="g5080">
      <g
         id="g5408" />
      <g
         id="g5424">
        <g
           inkscape:groupmode="layer"
           id="layer2"
           inkscape:label="device">
          <path
             id="path6441"
             style="fill:#ffffff;fill-opacity:1;fill-rule:nonzero;stroke:none"
             d="m 280.74555,368.06372 c -1.63255,0 -2.94427,1.31339 -2.94427,2.94928 0,1.62753 1.31172,2.94259 2.94427,2.94259 1.62252,0 2.94426,-1.31506 2.94426,-2.94259 0,-1.63589 -1.32174,-2.94928 -2.94426,-2.94928 m 13.80228,10.60571 -27.61459,0 0,37.38481 32.44038,0 0,1.23151 c 0,2.85904 -2.33603,5.19173 -5.18839,5.19173 l -26.88939,0 c -2.83899,0 -5.17001,-2.33269 -5.17001,-5.19173 l 0,-47.96712 c 0,-2.85236 2.33102,-5.18672 5.17001,-5.18672 l 26.88939,0 c 2.85236,0 5.18839,2.33436 5.18839,5.18672 l 0,18.15017 -4.82579,0 0,-8.79937 z m 14.00114,33.04527 -25.75313,0 c -2.53989,0 -4.61524,-2.08036 -4.61524,-4.62359 l 0,-10.78784 c 0,-2.54658 2.07535,-4.62862 4.61524,-4.62862 l 1.9517,0 0,-4.86589 c 0,-1.89823 1.10619,-2.35608 2.44966,-1.00927 l 5.88184,5.87516 15.46993,0 c 2.53821,0 4.61691,2.08204 4.61691,4.62862 l 0,10.78784 c 0,2.54323 -2.0787,4.62359 -4.61691,4.62359"
             inkscape:connector-curvature="0" />
        </g>
      </g>
    </g>
  </g>
</svg>
